<svg xmlns="http://www.w3.org/2000/svg" xmlns:xlink="http://www.w3.org/1999/xlink" viewBox="0,0,256,256" width="32px" height="32px" fill-rule="nonzero"><g fill="#365662" fill-rule="nonzero" stroke="#75E8E5" stroke-width="0.5" stroke-linecap="butt" stroke-linejoin="miter" stroke-miterlimit="10" stroke-dasharray="" stroke-dashoffset="0" font-family="none" font-weight="none" font-size="none" text-anchor="none" style="mix-blend-mode: normal"><g transform="scale(8,8)"><path d="M14.80078,4l-0.60156,2.80078l-1.19922,0.29883l-2,-2.09961l-1.90039,1.09961l0.80078,2.90039l-0.80078,0.80078l-2.90039,-0.80078l-1.09961,1.90039l2.09961,2.09961l-0.29883,1l-2.90039,0.80078v2.19922l2.90039,0.80078l0.29883,1.19922l-2,2l1,1.90039l3,-0.80078l0.70117,0.90039l-0.90039,2.69922l2,1.20117l2,-2.09961l1.09961,0.29883l0.70117,2.90039h2.29883l0.70117,-2.90039l1.19922,-0.29883l2.09961,2.09961l2,-1.20117l-0.90039,-2.79883l0.80078,-0.80078l2.90039,0.80078l1,-2l-2.09961,-1.90039l0.19922,-1.19922l3,-0.70117v-2.09961l-2.59961,-0.90039l0.40039,1.09961l0.09961,0.40039l-0.30078,0.20117l-1.09961,0.59961l-0.30078,0.19922l-0.29883,-0.29883l-0.90039,-1h-0.09961l-0.30078,1.29883l-0.09961,0.40039h-0.40039h-0.69922c-0.5,2.5 -2.8,4.40039 -5.5,4.40039c-3.2,0 -5.70117,-2.60117 -5.70117,-5.70117c0,-2.7 2,-4.9 4.5,-5.5v-0.69922v-0.30078l0.30078,-0.09961l1.30078,-0.40039l-0.90039,-0.89844l-0.20117,-0.20117l0.20117,-0.29883l0.59961,-1l0.19922,-0.30078l0.30078,0.19922l1.19922,0.30078l-0.59961,-2.5zM21,4l-0.30078,1.40039l-0.69922,0.19922l-1,-1.09961l-1,0.59961l0.40039,1.5l-0.5,0.40039l-1.5,-0.40039l-0.59961,1l1.09961,1.09961l-0.09961,0.5l-1.5,0.40039v1.20117l1.59961,0.39844l0.09961,0.70117l-1.19922,1.09961l0.59961,1l1.59961,-0.40039l0.40039,0.5l-0.40039,1.40039l1.09961,0.59961l1,-1.09961l0.59961,0.19922l0.40039,1.5h1.20117l0.39844,-1.5l0.60156,-0.19922l1.09961,1.19922l1.09961,-0.69922l-0.59961,-1.5l0.40039,-0.40039l1.5,0.5l0.5,-1.09961l-1.10156,-1l0.10156,-0.69922l1.69922,-0.40039v-1.09961l-1.5,-0.5l-0.09961,-0.60156l1.09961,-1.09961l-0.5,-1l-1.69922,0.40039l-0.40039,-0.40039l0.40039,-1.5l-1,-0.59961l-1.10156,1.09961l-0.59961,-0.19922l-0.40039,-1.40039zM21.59961,7.30078c1.7,0 3,1.4 3,3c0.1,1.7 -1.3,3 -3,3c-1.7,0 -3,-1.4 -3,-3c0,-1.7 1.4,-3 3,-3z"></path></g></g></svg>